<?xml version="1.0" encoding="UTF-8" standalone="no"?>
<!DOCTYPE svg PUBLIC "-//W3C//DTD SVG 1.1//EN" "http://www.w3.org/Graphics/SVG/1.1/DTD/svg11.dtd">
<!-- Generated by graphviz version 7.0.2 (20221119.0110)
 -->
<!-- Pages: 1 -->
<svg width="863pt" height="667pt"
  viewBox="0.00 0.00 863.00 667.00" xmlns="http://www.w3.org/2000/svg"
  xmlns:xlink="http://www.w3.org/1999/xlink">
  <g id="graph0" class="graph" transform="scale(1 1) rotate(0) translate(4 663)">
    <polygon fill="white" stroke="none" points="-4,4 -4,-663 859,-663 859,4 -4,4" />
    <!-- 1828825387872 -->
    <g id="node1" class="node">
      <title>1828825387872</title>
      <polygon fill="#caff70" stroke="black" points="245,-31 150,-31 150,0 245,0 245,-31" />
      <text text-anchor="middle" x="197.5" y="-7" font-family="monospace" font-size="10.00"> (256,
        1, 66)</text>
    </g>
    <!-- 1828928046224 -->
    <g id="node2" class="node">
      <title>1828928046224</title>
      <polygon fill="lightgrey" stroke="black" points="95,-92 0,-92 0,-73 95,-73 95,-92" />
      <text text-anchor="middle" x="47.5" y="-80" font-family="monospace" font-size="10.00">
        ViewBackward0</text>
    </g>
    <!-- 1828928046224&#45;&gt;1828825387872 -->
    <g id="edge30" class="edge">
      <title>1828928046224&#45;&gt;1828825387872</title>
      <path fill="none" stroke="black" d="M68.04,-72.6C89.74,-63.19 124.64,-48.07 152.74,-35.9" />
      <polygon fill="black" stroke="black"
        points="153.96,-39.18 161.74,-32 151.17,-32.76 153.96,-39.18" />
    </g>
    <!-- 1828928046560 -->
    <g id="node3" class="node">
      <title>1828928046560</title>
      <polygon fill="lightgrey" stroke="black" points="254,-153 153,-153 153,-134 254,-134 254,-153" />
      <text text-anchor="middle" x="203.5" y="-141" font-family="monospace" font-size="10.00">
        AddmmBackward0</text>
    </g>
    <!-- 1828928046560&#45;&gt;1828928046224 -->
    <g id="edge1" class="edge">
      <title>1828928046560&#45;&gt;1828928046224</title>
      <path fill="none" stroke="black" d="M179.81,-133.54C153.73,-123.68 111.58,-107.74 81.88,-96.5" />
      <polygon fill="black" stroke="black"
        points="83.17,-93.25 72.58,-92.98 80.69,-99.79 83.17,-93.25" />
    </g>
    <!-- 1827525258832 -->
    <g id="node4" class="node">
      <title>1827525258832</title>
      <polygon fill="orange" stroke="black"
        points="196,-97.5 113,-97.5 113,-67.5 196,-67.5 196,-97.5" />
      <text text-anchor="middle" x="154.5" y="-85.5" font-family="monospace" font-size="10.00">mat1</text>
      <text text-anchor="middle" x="154.5" y="-74.5" font-family="monospace" font-size="10.00">
        (256, 136)</text>
    </g>
    <!-- 1828928046560&#45;&gt;1827525258832 -->
    <g id="edge2" class="edge">
      <title>1828928046560&#45;&gt;1827525258832</title>
      <path fill="none" stroke="black" d="M196.06,-133.54C188.13,-124 175.48,-108.76 166.22,-97.61" />
    </g>
    <!-- 1827525258752 -->
    <g id="node5" class="node">
      <title>1827525258752</title>
      <polygon fill="orange" stroke="black"
        points="291,-97.5 214,-97.5 214,-67.5 291,-67.5 291,-97.5" />
      <text text-anchor="middle" x="252.5" y="-85.5" font-family="monospace" font-size="10.00">mat2</text>
      <text text-anchor="middle" x="252.5" y="-74.5" font-family="monospace" font-size="10.00">
        (136, 66)</text>
    </g>
    <!-- 1828928046560&#45;&gt;1827525258752 -->
    <g id="edge3" class="edge">
      <title>1828928046560&#45;&gt;1827525258752</title>
      <path fill="none" stroke="black" d="M210.94,-133.54C218.87,-124 231.52,-108.76 240.78,-97.61" />
    </g>
    <!-- 1827525378192 -->
    <g id="node31" class="node">
      <title>1827525378192</title>
      <polygon fill="#a2cd5a" stroke="black" points="386,-98 309,-98 309,-67 386,-67 386,-98" />
      <text text-anchor="middle" x="347.5" y="-74" font-family="monospace" font-size="10.00"> (256,
        66)</text>
    </g>
    <!-- 1828928046560&#45;&gt;1827525378192 -->
    <g id="edge31" class="edge">
      <title>1828928046560&#45;&gt;1827525378192</title>
      <path fill="none" stroke="black"
        d="M225.37,-133.54C245.27,-125.39 275.3,-113.08 300.61,-102.71" />
      <polygon fill="black" stroke="black"
        points="301.79,-106.01 309.72,-98.98 299.14,-99.53 301.79,-106.01" />
    </g>
    <!-- 1828928108768 -->
    <g id="node6" class="node">
      <title>1828928108768</title>
      <polygon fill="lightgrey" stroke="black"
        points="134,-213.5 33,-213.5 33,-194.5 134,-194.5 134,-213.5" />
      <text text-anchor="middle" x="83.5" y="-201.5" font-family="monospace" font-size="10.00">
        AccumulateGrad</text>
    </g>
    <!-- 1828928108768&#45;&gt;1828928046560 -->
    <g id="edge4" class="edge">
      <title>1828928108768&#45;&gt;1828928046560</title>
      <path fill="none" stroke="black"
        d="M101.73,-194.12C121.2,-184.62 152.32,-169.45 175.03,-158.38" />
      <polygon fill="black" stroke="black"
        points="176.29,-161.66 183.74,-154.13 173.22,-155.37 176.29,-161.66" />
    </g>
    <!-- 1828825430752 -->
    <g id="node7" class="node">
      <title>1828825430752</title>
      <polygon fill="lightblue" stroke="black" points="115,-285 38,-285 38,-255 115,-255 115,-285" />
      <text text-anchor="middle" x="76.5" y="-273" font-family="monospace" font-size="10.00">
        final.bias</text>
      <text text-anchor="middle" x="76.5" y="-262" font-family="monospace" font-size="10.00"> (66)</text>
    </g>
    <!-- 1828825430752&#45;&gt;1828928108768 -->
    <g id="edge5" class="edge">
      <title>1828825430752&#45;&gt;1828928108768</title>
      <path fill="none" stroke="black" d="M78.05,-254.8C79.01,-246.09 80.24,-234.81 81.29,-225.18" />
      <polygon fill="black" stroke="black"
        points="84.76,-225.67 82.37,-215.35 77.8,-224.91 84.76,-225.67" />
    </g>
    <!-- 1828928048000 -->
    <g id="node8" class="node">
      <title>1828928048000</title>
      <polygon fill="lightgrey" stroke="black"
        points="251,-213.5 156,-213.5 156,-194.5 251,-194.5 251,-213.5" />
      <text text-anchor="middle" x="203.5" y="-201.5" font-family="monospace" font-size="10.00">
        ViewBackward0</text>
    </g>
    <!-- 1828928048000&#45;&gt;1828928046560 -->
    <g id="edge6" class="edge">
      <title>1828928048000&#45;&gt;1828928046560</title>
      <path fill="none" stroke="black" d="M203.5,-194.37C203.5,-186.5 203.5,-174.6 203.5,-164.39" />
      <polygon fill="black" stroke="black"
        points="207,-164.68 203.5,-154.68 200,-164.68 207,-164.68" />
    </g>
    <!-- 1828928046800 -->
    <g id="node9" class="node">
      <title>1828928046800</title>
      <polygon fill="lightgrey" stroke="black"
        points="282,-279.5 133,-279.5 133,-260.5 282,-260.5 282,-279.5" />
      <text text-anchor="middle" x="207.5" y="-267.5" font-family="monospace" font-size="10.00">
        NativeDropoutBackward0</text>
    </g>
    <!-- 1828928046800&#45;&gt;1828928048000 -->
    <g id="edge7" class="edge">
      <title>1828928046800&#45;&gt;1828928048000</title>
      <path fill="none" stroke="black"
        d="M206.94,-260.1C206.38,-251.12 205.5,-236.95 204.76,-225.22" />
      <polygon fill="black" stroke="black"
        points="208.26,-225.1 204.15,-215.33 201.28,-225.53 208.26,-225.1" />
    </g>
    <!-- 1828825390432 -->
    <g id="node10" class="node">
      <title>1828825390432</title>
      <polygon fill="orange" stroke="black" points="370,-219 269,-219 269,-189 370,-189 370,-219" />
      <text text-anchor="middle" x="319.5" y="-207" font-family="monospace" font-size="10.00">
        result1</text>
      <text text-anchor="middle" x="319.5" y="-196" font-family="monospace" font-size="10.00"> (256,
        1, 136)</text>
    </g>
    <!-- 1828928046800&#45;&gt;1828825390432 -->
    <g id="edge8" class="edge">
      <title>1828928046800&#45;&gt;1828825390432</title>
      <path fill="none" stroke="black"
        d="M223.07,-260.1C241.47,-249.59 272.32,-231.96 294.16,-219.48" />
    </g>
    <!-- 1828928048576 -->
    <g id="node11" class="node">
      <title>1828928048576</title>
      <polygon fill="lightgrey" stroke="black"
        points="327,-345.5 232,-345.5 232,-326.5 327,-326.5 327,-345.5" />
      <text text-anchor="middle" x="279.5" y="-333.5" font-family="monospace" font-size="10.00">
        ReluBackward0</text>
    </g>
    <!-- 1828928048576&#45;&gt;1828928046800 -->
    <g id="edge9" class="edge">
      <title>1828928048576&#45;&gt;1828928046800</title>
      <path fill="none" stroke="black"
        d="M269.49,-326.1C258.2,-316.07 239.63,-299.56 225.75,-287.22" />
      <polygon fill="black" stroke="black"
        points="228.36,-284.86 218.56,-280.83 223.71,-290.09 228.36,-284.86" />
    </g>
    <!-- 1827525259072 -->
    <g id="node12" class="node">
      <title>1827525259072</title>
      <polygon fill="orange" stroke="black" points="401,-285 300,-285 300,-255 401,-255 401,-285" />
      <text text-anchor="middle" x="350.5" y="-273" font-family="monospace" font-size="10.00">result</text>
      <text text-anchor="middle" x="350.5" y="-262" font-family="monospace" font-size="10.00"> (256,
        1, 136)</text>
    </g>
    <!-- 1828928048576&#45;&gt;1827525259072 -->
    <g id="edge10" class="edge">
      <title>1828928048576&#45;&gt;1827525259072</title>
      <path fill="none" stroke="black"
        d="M289.37,-326.1C301.03,-315.59 320.59,-297.96 334.44,-285.48" />
    </g>
    <!-- 1828928047136 -->
    <g id="node13" class="node">
      <title>1828928047136</title>
      <polygon fill="lightgrey" stroke="black"
        points="327,-411.5 232,-411.5 232,-392.5 327,-392.5 327,-411.5" />
      <text text-anchor="middle" x="279.5" y="-399.5" font-family="monospace" font-size="10.00">
        ViewBackward0</text>
    </g>
    <!-- 1828928047136&#45;&gt;1828928048576 -->
    <g id="edge11" class="edge">
      <title>1828928047136&#45;&gt;1828928048576</title>
      <path fill="none" stroke="black" d="M279.5,-392.1C279.5,-383.12 279.5,-368.95 279.5,-357.22" />
      <polygon fill="black" stroke="black"
        points="283,-357.34 279.5,-347.34 276,-357.34 283,-357.34" />
    </g>
    <!-- 1828928045216 -->
    <g id="node14" class="node">
      <title>1828928045216</title>
      <polygon fill="lightgrey" stroke="black" points="437,-472 336,-472 336,-453 437,-453 437,-472" />
      <text text-anchor="middle" x="386.5" y="-460" font-family="monospace" font-size="10.00">
        AddmmBackward0</text>
    </g>
    <!-- 1828928045216&#45;&gt;1828928047136 -->
    <g id="edge12" class="edge">
      <title>1828928045216&#45;&gt;1828928047136</title>
      <path fill="none" stroke="black"
        d="M370.25,-452.62C353.2,-443.29 326.14,-428.5 305.99,-417.49" />
      <polygon fill="black" stroke="black"
        points="307.69,-414.42 297.23,-412.69 304.33,-420.56 307.69,-414.42" />
    </g>
    <!-- 1827525258992 -->
    <g id="node15" class="node">
      <title>1827525258992</title>
      <polygon fill="orange" stroke="black" points="428,-417 345,-417 345,-387 428,-387 428,-417" />
      <text text-anchor="middle" x="386.5" y="-405" font-family="monospace" font-size="10.00">mat1</text>
      <text text-anchor="middle" x="386.5" y="-394" font-family="monospace" font-size="10.00"> (256,
        378)</text>
    </g>
    <!-- 1828928045216&#45;&gt;1827525258992 -->
    <g id="edge13" class="edge">
      <title>1828928045216&#45;&gt;1827525258992</title>
      <path fill="none" stroke="black" d="M386.5,-452.87C386.5,-443.46 386.5,-428.26 386.5,-417.11" />
    </g>
    <!-- 1827525378352 -->
    <g id="node16" class="node">
      <title>1827525378352</title>
      <polygon fill="orange" stroke="black" points="529,-417 446,-417 446,-387 529,-387 529,-417" />
      <text text-anchor="middle" x="487.5" y="-405" font-family="monospace" font-size="10.00">mat2</text>
      <text text-anchor="middle" x="487.5" y="-394" font-family="monospace" font-size="10.00"> (378,
        136)</text>
    </g>
    <!-- 1828928045216&#45;&gt;1827525378352 -->
    <g id="edge14" class="edge">
      <title>1828928045216&#45;&gt;1827525378352</title>
      <path fill="none" stroke="black"
        d="M401.84,-452.62C417.95,-443.28 443.55,-428.46 462.57,-417.44" />
    </g>
    <!-- 1828928107040 -->
    <g id="node17" class="node">
      <title>1828928107040</title>
      <polygon fill="lightgrey" stroke="black" points="321,-527 220,-527 220,-508 321,-508 321,-527" />
      <text text-anchor="middle" x="270.5" y="-515" font-family="monospace" font-size="10.00">
        AccumulateGrad</text>
    </g>
    <!-- 1828928107040&#45;&gt;1828928045216 -->
    <g id="edge15" class="edge">
      <title>1828928107040&#45;&gt;1828928045216</title>
      <path fill="none" stroke="black"
        d="M290.18,-507.51C308.45,-499.16 335.91,-486.61 356.85,-477.05" />
      <polygon fill="black" stroke="black"
        points="358.1,-480.33 365.74,-472.99 355.19,-473.96 358.1,-480.33" />
    </g>
    <!-- 1828799034688 -->
    <g id="node18" class="node">
      <title>1828799034688</title>
      <polygon fill="lightblue" stroke="black" points="300,-593 241,-593 241,-563 300,-563 300,-593" />
      <text text-anchor="middle" x="270.5" y="-581" font-family="monospace" font-size="10.00">
        fc.bias</text>
      <text text-anchor="middle" x="270.5" y="-570" font-family="monospace" font-size="10.00"> (136)</text>
    </g>
    <!-- 1828799034688&#45;&gt;1828928107040 -->
    <g id="edge16" class="edge">
      <title>1828799034688&#45;&gt;1828928107040</title>
      <path fill="none" stroke="black" d="M270.5,-562.54C270.5,-555.34 270.5,-546.53 270.5,-538.68" />
      <polygon fill="black" stroke="black"
        points="274,-538.69 270.5,-528.69 267,-538.69 274,-538.69" />
    </g>
    <!-- 1828928045408 -->
    <g id="node19" class="node">
      <title>1828928045408</title>
      <polygon fill="lightgrey" stroke="black" points="434,-527 339,-527 339,-508 434,-508 434,-527" />
      <text text-anchor="middle" x="386.5" y="-515" font-family="monospace" font-size="10.00">
        ViewBackward0</text>
    </g>
    <!-- 1828928045408&#45;&gt;1828928045216 -->
    <g id="edge17" class="edge">
      <title>1828928045408&#45;&gt;1828928045216</title>
      <path fill="none" stroke="black" d="M386.5,-507.75C386.5,-501.27 386.5,-492.16 386.5,-483.9" />
      <polygon fill="black" stroke="black"
        points="390,-483.96 386.5,-473.96 383,-483.96 390,-483.96" />
    </g>
    <!-- 1828928047088 -->
    <g id="node20" class="node">
      <title>1828928047088</title>
      <polygon fill="lightgrey" stroke="black"
        points="423,-587.5 328,-587.5 328,-568.5 423,-568.5 423,-587.5" />
      <text text-anchor="middle" x="375.5" y="-575.5" font-family="monospace" font-size="10.00">
        ViewBackward0</text>
    </g>
    <!-- 1828928047088&#45;&gt;1828928045408 -->
    <g id="edge18" class="edge">
      <title>1828928047088&#45;&gt;1828928045408</title>
      <path fill="none" stroke="black" d="M377.12,-568.37C378.6,-560.5 380.84,-548.6 382.76,-538.39" />
      <polygon fill="black" stroke="black"
        points="386.18,-539.13 384.59,-528.65 379.3,-537.84 386.18,-539.13" />
    </g>
    <!-- 1828928048768 -->
    <g id="node21" class="node">
      <title>1828928048768</title>
      <polygon fill="lightgrey" stroke="black"
        points="617,-653.5 492,-653.5 492,-634.5 617,-634.5 617,-653.5" />
      <text text-anchor="middle" x="554.5" y="-641.5" font-family="monospace" font-size="10.00">
        EmbeddingBackward0</text>
    </g>
    <!-- 1828928048768&#45;&gt;1828928047088 -->
    <g id="edge19" class="edge">
      <title>1828928048768&#45;&gt;1828928047088</title>
      <path fill="none" stroke="black" d="M529.61,-634.1C498.84,-623.1 446.25,-604.3 411.18,-591.76" />
      <polygon fill="black" stroke="black"
        points="412.49,-588.51 401.89,-588.44 410.13,-595.1 412.49,-588.51" />
    </g>
    <!-- 1828928064064 -->
    <g id="node22" class="node">
      <title>1828928064064</title>
      <polygon fill="orange" stroke="black" points="530,-593 441,-593 441,-563 530,-563 530,-593" />
      <text text-anchor="middle" x="485.5" y="-581" font-family="monospace" font-size="10.00">
        indices</text>
      <text text-anchor="middle" x="485.5" y="-570" font-family="monospace" font-size="10.00"> (256,
        1, 7)</text>
    </g>
    <!-- 1828928048768&#45;&gt;1828928064064 -->
    <g id="edge20" class="edge">
      <title>1828928048768&#45;&gt;1828928064064</title>
      <path fill="none" stroke="black"
        d="M544.91,-634.1C533.57,-623.59 514.57,-605.96 501.11,-593.48" />
    </g>
    <!-- 1828928064304 -->
    <g id="node23" class="node">
      <title>1828928064304</title>
      <polygon fill="lightblue" stroke="black" points="697,-593 548,-593 548,-563 697,-563 697,-593" />
      <text text-anchor="middle" x="622.5" y="-581" font-family="monospace" font-size="10.00">
        token_embedding.weight</text>
      <text text-anchor="middle" x="622.5" y="-570" font-family="monospace" font-size="10.00"> (66,
        54)</text>
    </g>
    <!-- 1828928048768&#45;&gt;1828928064304 -->
    <g id="edge21" class="edge">
      <title>1828928048768&#45;&gt;1828928064304</title>
      <path fill="none" stroke="black"
        d="M563.96,-634.1C575.12,-623.59 593.85,-605.96 607.12,-593.48" />
    </g>
    <!-- 1828656038000 -->
    <g id="node24" class="node">
      <title>1828656038000</title>
      <polygon fill="lightgrey" stroke="black" points="692,-527 591,-527 591,-508 692,-508 692,-527" />
      <text text-anchor="middle" x="641.5" y="-515" font-family="monospace" font-size="10.00">
        AccumulateGrad</text>
    </g>
    <!-- 1828928064304&#45;&gt;1828656038000 -->
    <g id="edge23" class="edge">
      <title>1828928064304&#45;&gt;1828656038000</title>
      <path fill="none" stroke="black"
        d="M627.2,-562.54C629.59,-555.17 632.54,-546.1 635.13,-538.11" />
      <polygon fill="black" stroke="black"
        points="638.45,-539.21 638.21,-528.61 631.8,-537.04 638.45,-539.21" />
    </g>
    <!-- 1828656038000&#45;&gt;1828928048768 -->
    <g id="edge22" class="edge">
      <title>1828656038000&#45;&gt;1828928048768</title>
      <path fill="none" stroke="black"
        d="M664.26,-527.35C679.23,-534.51 697.63,-546.18 706.5,-563 712.72,-574.79 714.32,-582.2 706.5,-593 688.45,-617.94 657.53,-630.66 628.28,-637.06" />
      <polygon fill="black" stroke="black"
        points="627.81,-633.59 618.66,-638.93 629.15,-640.46 627.81,-633.59" />
    </g>
    <!-- 1828928046176 -->
    <g id="node25" class="node">
      <title>1828928046176</title>
      <polygon fill="lightgrey" stroke="black" points="824,-527 747,-527 747,-508 824,-508 824,-527" />
      <text text-anchor="middle" x="785.5" y="-515" font-family="monospace" font-size="10.00">
        TBackward0</text>
    </g>
    <!-- 1828928046176&#45;&gt;1828928045216 -->
    <g id="edge24" class="edge">
      <title>1828928046176&#45;&gt;1828928045216</title>
      <path fill="none" stroke="black"
        d="M746.52,-511.32C677.22,-502.12 532.08,-482.84 448.8,-471.78" />
      <polygon fill="black" stroke="black"
        points="449.35,-468.32 438.97,-470.47 448.43,-475.26 449.35,-468.32" />
    </g>
    <!-- 1828928108000 -->
    <g id="node26" class="node">
      <title>1828928108000</title>
      <polygon fill="lightgrey" stroke="black"
        points="855,-587.5 754,-587.5 754,-568.5 855,-568.5 855,-587.5" />
      <text text-anchor="middle" x="804.5" y="-575.5" font-family="monospace" font-size="10.00">
        AccumulateGrad</text>
    </g>
    <!-- 1828928108000&#45;&gt;1828928046176 -->
    <g id="edge25" class="edge">
      <title>1828928108000&#45;&gt;1828928046176</title>
      <path fill="none" stroke="black"
        d="M801.7,-568.37C799.11,-560.42 795.19,-548.33 791.85,-538.05" />
      <polygon fill="black" stroke="black"
        points="795.2,-537.04 788.78,-528.61 788.54,-539.2 795.2,-537.04" />
    </g>
    <!-- 1828928063744 -->
    <g id="node27" class="node">
      <title>1828928063744</title>
      <polygon fill="lightblue" stroke="black" points="846,-659 763,-659 763,-629 846,-629 846,-659" />
      <text text-anchor="middle" x="804.5" y="-647" font-family="monospace" font-size="10.00">
        fc.weight</text>
      <text text-anchor="middle" x="804.5" y="-636" font-family="monospace" font-size="10.00"> (136,
        378)</text>
    </g>
    <!-- 1828928063744&#45;&gt;1828928108000 -->
    <g id="edge26" class="edge">
      <title>1828928063744&#45;&gt;1828928108000</title>
      <path fill="none" stroke="black" d="M804.5,-628.8C804.5,-620.09 804.5,-608.81 804.5,-599.18" />
      <polygon fill="black" stroke="black"
        points="808,-599.36 804.5,-589.36 801,-599.36 808,-599.36" />
    </g>
    <!-- 1828928048048 -->
    <g id="node28" class="node">
      <title>1828928048048</title>
      <polygon fill="lightgrey" stroke="black"
        points="486,-213.5 409,-213.5 409,-194.5 486,-194.5 486,-213.5" />
      <text text-anchor="middle" x="447.5" y="-201.5" font-family="monospace" font-size="10.00">
        TBackward0</text>
    </g>
    <!-- 1828928048048&#45;&gt;1828928046560 -->
    <g id="edge27" class="edge">
      <title>1828928048048&#45;&gt;1828928046560</title>
      <path fill="none" stroke="black"
        d="M410.18,-194.05C367.75,-183.88 298.37,-167.24 251.84,-156.09" />
      <polygon fill="black" stroke="black"
        points="252.83,-152.73 242.29,-153.8 251.2,-159.54 252.83,-152.73" />
    </g>
    <!-- 1828928108576 -->
    <g id="node29" class="node">
      <title>1828928108576</title>
      <polygon fill="lightgrey" stroke="black"
        points="520,-279.5 419,-279.5 419,-260.5 520,-260.5 520,-279.5" />
      <text text-anchor="middle" x="469.5" y="-267.5" font-family="monospace" font-size="10.00">
        AccumulateGrad</text>
    </g>
    <!-- 1828928108576&#45;&gt;1828928048048 -->
    <g id="edge28" class="edge">
      <title>1828928108576&#45;&gt;1828928048048</title>
      <path fill="none" stroke="black"
        d="M466.44,-260.1C463.29,-250.93 458.27,-236.34 454.2,-224.48" />
      <polygon fill="black" stroke="black"
        points="457.59,-223.57 451.03,-215.25 450.97,-225.85 457.59,-223.57" />
    </g>
    <!-- 1828825364656 -->
    <g id="node30" class="node">
      <title>1828825364656</title>
      <polygon fill="lightblue" stroke="black" points="514,-351 425,-351 425,-321 514,-321 514,-351" />
      <text text-anchor="middle" x="469.5" y="-339" font-family="monospace" font-size="10.00">
        final.weight</text>
      <text text-anchor="middle" x="469.5" y="-328" font-family="monospace" font-size="10.00"> (66,
        136)</text>
    </g>
    <!-- 1828825364656&#45;&gt;1828928108576 -->
    <g id="edge29" class="edge">
      <title>1828825364656&#45;&gt;1828928108576</title>
      <path fill="none" stroke="black" d="M469.5,-320.8C469.5,-312.09 469.5,-300.81 469.5,-291.18" />
      <polygon fill="black" stroke="black"
        points="473,-291.36 469.5,-281.36 466,-291.36 473,-291.36" />
    </g>
    <!-- 1827525378192&#45;&gt;1828825387872 -->
    <g id="edge32" class="edge">
      <title>1827525378192&#45;&gt;1828825387872</title>
      <path fill="none" stroke="black" stroke-dasharray="1,5"
        d="M313.09,-66.59C292.1,-57.5 265.06,-45.78 242.4,-35.96" />
      <polygon fill="black" stroke="black"
        points="243.97,-32.82 233.4,-32.06 241.18,-39.24 243.97,-32.82" />
    </g>
  </g>
</svg>